<?xml version="1.0" encoding="UTF-8" standalone="no"?>
<svg
   xmlns:dc="http://purl.org/dc/elements/1.1/"
   xmlns:cc="http://creativecommons.org/ns#"
   xmlns:rdf="http://www.w3.org/1999/02/22-rdf-syntax-ns#"
   xmlns:svg="http://www.w3.org/2000/svg"
   xmlns="http://www.w3.org/2000/svg"
   xmlns:sodipodi="http://sodipodi.sourceforge.net/DTD/sodipodi-0.dtd"
   xmlns:inkscape="http://www.inkscape.org/namespaces/inkscape"
   version="1.1"
   width="595.27557"
   height="841.88977"
   id="svg18"
   viewBox="0 0 595.27557 841.88977"
   sodipodi:docname="ADMIN.cdr">
  <metadata
     id="metadata24">
    <rdf:RDF>
      <cc:Work
         rdf:about="">
        <dc:format>image/svg+xml</dc:format>
        <dc:type
           rdf:resource="http://purl.org/dc/dcmitype/StillImage" />
      </cc:Work>
    </rdf:RDF>
  </metadata>
  <defs
     id="defs22" />
  <sodipodi:namedview
     pagecolor="#ffffff"
     bordercolor="#666666"
     borderopacity="1"
     objecttolerance="10"
     gridtolerance="10"
     guidetolerance="10"
     inkscape:pageopacity="0"
     inkscape:pageshadow="2"
     inkscape:window-width="640"
     inkscape:window-height="480"
     id="namedview20" />
  <text
     x="92.386497"
     y="327.72049"
     id="text4"><tspan
       font-family="'Cooper Black'"
       font-size="34.5px"
       fill="#1b1918"
       id="tspan2">A D M I N----P AG E</tspan></text>
  <path
     d="m 154.9069,429.5086 c 0,1.2235 -0.4077,2.8545 -0.8156,4.4859 -0.8155,2.0389 -2.0389,3.6703 -3.6703,5.3013 -1.631,1.6313 -3.67,2.8548 -6.1168,4.0782 -2.039,0.8155 -5.3017,1.6311 -8.1562,1.6311 -2.4468,0 -4.8937,-0.4079 -6.9327,-0.8156 -2.0389,-0.4079 -3.6703,-1.2234 -5.3013,-2.4468 -1.6314,-0.8156 -3.2624,-2.039 -4.4858,-3.6703 -1.2235,-1.6311 -2.4469,-3.2624 -3.2624,-4.8935 -0.8156,-2.0392 -1.6314,-3.6703 -2.039,-5.7092 -0.4079,-2.039 -0.4079,-4.4859 -0.4079,-6.5248 0,-3.2624 0.4079,-6.9324 1.6313,-9.7872 1.2232,-2.8545 2.4466,-5.3014 4.4859,-7.3403 2.0389,-2.4469 4.4858,-3.6703 7.3403,-4.8937 2.4468,-1.2235 5.7092,-1.6311 8.5637,-1.6311 3.6703,0 6.9327,0.4076 9.7875,2.039 3.2624,1.631 5.3013,3.2624 6.9327,5.7092 1.631,2.039 2.0389,4.0779 2.0389,6.1169 0,1.2234 -0.4079,2.039 -0.8158,2.8548 -0.8155,0.8155 -1.631,1.2234 -2.8545,1.2234 -1.2234,0 -2.0389,0 -2.8544,-0.8158 -0.4079,-0.4076 -1.2235,-1.6311 -2.0393,-2.8545 -1.2234,-2.4469 -2.4466,-4.0782 -4.0779,-5.3013 -1.6313,-0.8159 -3.6703,-1.6314 -6.1172,-1.6314 -4.0779,0 -6.9324,1.6314 -9.3792,4.4858 -2.039,2.8545 -3.2624,6.9327 -3.2624,11.8262 0,3.67 0.4076,6.9324 1.631,9.3793 0.8155,2.0389 2.4469,4.0782 4.0782,5.3013 2.039,1.2234 4.0779,1.6314 6.5248,1.6314 2.8545,0 4.8935,-0.8156 6.9327,-2.039 2.039,-1.2234 3.2624,-3.2624 4.0779,-5.7093 0.4079,-1.2234 1.2235,-2.4468 1.6314,-3.2624 0.8155,-0.4079 1.631,-0.8155 2.8544,-0.8155 1.2235,0 2.039,0.4076 2.8545,0.8155 0.8158,0.8156 1.2235,2.039 1.2235,3.2624 z"
     style="fill:#ffffff;fill-rule:evenodd"
     id="path6" />
  <path
     d="m 200.173,397.2926 c 4.8938,0 8.9717,0.8155 12.2341,2.8545 3.6703,2.0389 6.1172,4.4858 7.7482,8.1561 2.0393,3.67 2.8548,7.7482 2.8548,12.6417 0,3.2624 -0.4079,6.5248 -1.6314,9.3793 -0.8155,2.8547 -2.4468,5.7092 -4.4858,7.7482 -1.631,2.0389 -4.0779,3.6703 -6.9327,4.8937 -2.8545,1.2234 -6.1169,1.6311 -9.7872,1.6311 -3.6703,0 -6.9327,-0.4077 -9.7871,-1.6311 -2.8548,-1.2234 -5.3014,-2.8548 -7.3406,-5.3013 -1.6311,-2.0393 -3.2624,-4.4859 -4.078,-7.3406 -1.2234,-3.2624 -1.6313,-6.5248 -1.6313,-9.3793 0,-3.67 0.4079,-6.9324 1.6313,-9.7872 0.8156,-3.2624 2.4469,-5.7093 4.078,-7.7482 2.0392,-2.039 4.4858,-3.6703 7.3406,-4.8938 2.8544,-0.8155 6.1168,-1.2231 9.7871,-1.2231 z m 13.4575,23.6523 c 0,-3.2624 -0.8155,-6.1169 -1.631,-8.5638 -1.2235,-2.4468 -2.8548,-4.4858 -4.8938,-5.7092 -2.0389,-1.2235 -4.4858,-2.039 -6.9327,-2.039 -2.0389,0 -3.6703,0.4079 -5.3013,1.2234 -1.6314,0.408 -2.8548,1.6311 -4.0782,2.8545 -1.2232,1.6314 -2.039,3.2624 -2.4466,5.3017 -0.8158,2.0389 -1.2234,4.4858 -1.2234,6.9324 0,2.4466 0.4076,4.8934 1.2234,6.9324 0.4076,2.0392 1.6311,4.0782 2.4466,5.3016 1.2234,1.6311 2.8548,2.4466 4.4858,3.2624 1.6313,0.8156 3.2627,0.8156 5.3016,0.8156 2.039,0 4.4859,-0.408 6.5248,-1.6314 2.039,-1.2231 3.6703,-3.2624 4.4859,-5.709 1.2234,-2.4468 2.0389,-5.7092 2.0389,-8.9716 z"
     style="fill:#ffffff;fill-rule:evenodd"
     id="path8" />
  <path
     d="m 259.7122,424.2073 h -3.2624 v 14.6809 c 0,2.0389 -0.4079,3.67 -1.2234,4.4858 -0.8155,0.8155 -2.039,1.2232 -3.2624,1.2232 -1.6311,0 -2.8545,-0.4077 -3.6703,-1.2232 -0.8155,-1.2234 -1.2234,-2.4469 -1.2234,-4.4858 v -35.0708 c 0,-2.039 0.8158,-3.6703 1.6313,-4.4858 0.8155,-0.8159 2.4469,-1.2235 4.4858,-1.2235 h 15.0889 c 2.0389,0 4.0779,0 5.3013,0 1.6311,0.4076 2.8545,0.8156 4.0779,1.2235 1.6314,0.8155 2.8548,1.631 4.0782,2.4468 1.2235,1.2232 2.039,2.8545 2.4466,4.0779 0.4079,1.6311 0.8158,3.2624 0.8158,4.8938 0,3.67 -0.8158,6.1169 -2.8547,8.1558 -2.039,2.039 -4.8935,3.2621 -8.9717,4.0779 1.6313,0.8156 3.2624,2.4469 4.8937,4.078 1.6311,1.6313 2.8545,3.6703 4.078,5.3013 1.2234,2.0393 2.0389,3.6703 2.8547,5.3017 0.8156,1.631 0.8156,2.8544 0.8156,3.2623 0,0.8156 0,1.2235 -0.408,1.6311 -0.4076,0.8158 -0.8155,1.2234 -1.631,1.6313 -0.8155,0.4077 -1.6313,0.4077 -2.4469,0.4077 -0.8155,0 -1.6313,0 -2.4468,-0.8156 -0.8156,-0.4076 -1.2235,-0.8155 -2.039,-1.631 -0.4079,-0.8158 -1.2234,-2.0393 -2.039,-3.6703 l -3.6703,-6.1172 c -1.631,-2.4466 -2.8544,-4.0779 -3.6703,-5.3013 -1.2234,-1.2235 -2.0389,-2.039 -3.2624,-2.4469 -1.2234,-0.4076 -2.4468,-0.4076 -4.4858,-0.4076 z m 5.7093,-19.1665 h -8.9717 v 12.6417 h 8.5638 c 2.4468,0 4.0782,0 5.7092,-0.4076 1.6314,-0.4079 2.8548,-1.2235 3.6703,-2.039 0.4079,-0.8158 0.8156,-2.0392 0.8156,-4.0782 0,-1.2234 0,-2.039 -0.8156,-3.2624 -0.8155,-0.8155 -1.631,-1.631 -2.8545,-2.039 -0.8158,-0.4079 -2.8547,-0.8155 -6.1171,-0.8155 z"
     style="fill:#ffffff;fill-rule:evenodd"
     id="path10" />
  <path
     d="m 330.262,397.2926 c 4.4858,0 8.5638,0.8155 12.2341,2.8545 3.67,2.0389 6.1168,4.4858 7.7482,8.1561 1.631,3.67 2.8545,7.7482 2.8545,12.6417 0,3.2624 -0.8156,6.5248 -1.6311,9.3793 -0.8158,2.8547 -2.4468,5.7092 -4.4858,7.7482 -1.6313,2.0389 -4.0782,3.6703 -6.9327,4.8937 -2.8548,1.2234 -6.1172,1.6311 -9.7872,1.6311 -3.6703,0 -6.9327,-0.4077 -9.7874,-1.6311 -2.8545,-1.2234 -5.3014,-2.8548 -7.3404,-5.3013 -2.0389,-2.0393 -3.2624,-4.4859 -4.4858,-7.3406 -0.8158,-3.2624 -1.2234,-6.5248 -1.2234,-9.3793 0,-3.67 0.4076,-6.9324 1.2234,-9.7872 1.2234,-3.2624 2.4469,-5.7093 4.4858,-7.7482 2.039,-2.039 4.4859,-3.6703 7.3404,-4.8938 2.8547,-0.8155 6.1171,-1.2231 9.7874,-1.2231 z m 13.0496,23.6523 c 0,-3.2624 -0.4079,-6.1169 -1.6313,-8.5638 -0.8156,-2.4468 -2.4466,-4.4858 -4.4859,-5.7092 -2.0389,-1.2235 -4.4858,-2.039 -6.9324,-2.039 -2.0392,0 -3.6703,0.4079 -5.3016,1.2234 -1.6311,0.408 -2.8545,1.6311 -4.0779,2.8545 -1.2235,1.6314 -2.039,3.2624 -2.8548,5.3017 -0.4076,2.0389 -0.8155,4.4858 -0.8155,6.9324 0,2.4466 0.4079,4.8934 0.8155,6.9324 0.8158,2.0392 1.6313,4.0782 2.8548,5.3016 1.2234,1.6311 2.8544,2.4466 4.4858,3.2624 1.2234,0.8156 3.2624,0.8156 4.8937,0.8156 2.4466,0 4.8935,-0.408 6.5248,-1.6314 2.039,-1.2231 3.67,-3.2624 4.8935,-5.709 1.2234,-2.4468 1.6313,-5.7092 1.6313,-8.9716 z"
     style="fill:#ffffff;fill-rule:evenodd"
     id="path12" />
  <path
     d="m 389.3933,402.594 18.3512,27.3225 V 402.594 c 0,-2.039 0.4076,-3.2624 1.2234,-4.0783 0.8156,-0.8155 1.6311,-1.2231 2.8545,-1.2231 1.6314,0 2.4469,0.4076 3.2624,1.2231 0.8155,0.8159 1.2235,2.0393 1.2235,4.0783 v 35.8863 c 0,4.0779 -1.6314,6.1169 -5.3014,6.1169 -0.8158,0 -1.2234,0 -2.039,-0.4077 -0.8158,0 -1.2234,-0.4079 -2.0392,-1.2234 -0.4076,-0.4079 -1.2234,-0.8155 -1.6311,-1.6313 -0.4079,-0.8156 -0.8155,-1.6311 -1.2234,-2.4466 l -17.9433,-26.5071 v 26.9147 c 0,1.6313 -0.4079,2.8548 -1.2234,4.0782 -0.8156,0.8155 -1.6314,1.2232 -2.8548,1.2232 -1.6311,0 -2.4466,-0.4077 -3.2624,-1.2232 -0.8155,-1.2234 -1.2234,-2.4469 -1.2234,-4.0782 v -35.4784 c 0,-1.2234 0,-2.4469 0.4079,-3.6703 0.4079,-0.8155 1.2234,-1.6314 2.0389,-2.039 0.8158,-0.8155 2.039,-0.8155 2.8548,-0.8155 0.8155,0 1.6311,0 2.4469,0.4076 0.4076,0 0.8155,0.4079 1.631,0.8155 0.4079,0.8159 0.8156,1.2235 1.2235,2.0393 0.4079,0.8155 0.8155,1.2234 1.2234,2.039 z"
     style="fill:#ffffff;fill-rule:evenodd"
     id="path14" />
  <path
     d="m 471.7695,438.8882 -2.4469,-6.1172 h -18.7588 l -2.4469,6.1172 c -0.8158,2.4466 -1.6313,4.0779 -2.0389,4.8934 -0.4079,0.8156 -1.6314,1.2235 -2.8548,1.2235 -1.2234,0 -2.4469,-0.4079 -3.2624,-1.6311 -0.8155,-0.8158 -1.2234,-1.6313 -1.2234,-2.8548 0,-0.4079 0,-1.2234 0,-2.0389 0.4079,-0.4079 0.8155,-1.6314 1.2234,-2.4469 l 11.8262,-29.7691 c 0.4079,-0.8159 0.8158,-2.0393 1.2234,-3.2627 0.4079,-1.2232 0.8158,-2.039 1.6313,-2.8545 0.4079,-0.8155 1.2235,-1.6314 2.039,-2.039 0.8155,-0.4079 2.039,-0.8155 3.2624,-0.8155 1.2234,0 2.0389,0.4076 3.2624,0.8155 0.8158,0.4076 1.6313,1.2235 2.0392,2.039 0.4076,0.8155 0.8156,1.6313 1.2232,2.4469 0.4079,0.8155 0.8158,2.0389 1.6313,3.6703 l 11.8262,29.3612 c 1.2234,2.4469 1.6313,4.0782 1.6313,5.3016 0,0.8156 -0.4079,2.039 -1.2234,2.8545 -1.2235,0.8156 -2.039,1.2235 -3.2624,1.2235 -0.8156,0 -1.6314,0 -2.039,-0.4079 -0.4079,-0.4077 -0.8155,-0.4077 -1.2234,-1.2232 -0.4079,-0.4079 -0.8156,-1.2234 -1.2235,-2.0392 -0.4079,-0.8156 -0.8155,-2.039 -0.8155,-2.4466 z m -18.7591,-13.0499 h 13.8654 l -6.9327,-18.7585 z"
     style="fill:#ffffff;fill-rule:evenodd"
     id="path16" />
</svg>
